<svg xmlns="http://www.w3.org/2000/svg" viewBox="0 0 24 24">
  <rect width="24" height="24" rx="5.5" fill="oklch(0.55 0.165 264)"/>
  <g fill="none" stroke="#fff" stroke-width="2" stroke-linecap="round" stroke-linejoin="round" transform="translate(4.56 4.56) scale(0.62)">
    <path d="M21 8v8a2 2 0 0 1-1 1.73l-7 4a2 2 0 0 1-2 0l-7-4A2 2 0 0 1 3 16V8a2 2 0 0 1 1-1.73l7-4a2 2 0 0 1 2 0l7 4A2 2 0 0 1 21 8z"/>
    <polyline points="3.27 6.96 12 12.01 20.73 6.96"/>
    <line x1="12" y1="22.08" x2="12" y2="12"/>
  </g>
</svg>
